<?xml version="1.0" encoding="utf-8"?>
<!-- Generator: Adobe Illustrator 22.0.1, SVG Export Plug-In . SVG Version: 6.00 Build 0)  -->
<svg version="1.1" id="Capa_1" xmlns="http://www.w3.org/2000/svg" xmlns:xlink="http://www.w3.org/1999/xlink" x="0px" y="0px"
	 viewBox="0 0 633.6 215.4" style="enable-background:new 0 0 633.6 215.4;" xml:space="preserve">
<style type="text/css">
	.st0{fill:#3C3C3B;}
	.st1{fill:#FFFFFF;}
	.st2{fill:#E31019;}
</style>
<path class="st0" d="M520,60.1c-15.4,1.3-26.3,2.2-26.3,2.2c-3.1-0.6-5.4-3.3-5.4-6.5v30c0,3.2,2.4,5.9,5.4,6.5H520V60.1z"/>
<path class="st1" d="M98.4,113.7c0,19.9-13.9,28.8-35.3,28.8c-14.5,0-24.6-2.5-33.7-6.1l4.9-22c7.7,3.7,15.2,6.6,26.8,6.6
	c5.2,0,6.7-1.3,6.7-3c0-6-38.4-1.1-38.2-31.8c0.1-18.1,13.9-28,34.6-28c11.4,0,22.1,2,31.1,4.7l-4.9,21.8c-5.3-2.4-14.5-4.8-24-4.8
	c-4.1,0-6.7,0.6-6.7,3C59.6,88.9,98.4,85,98.4,113.7z"/>
<path class="st1" d="M173,103.4V141h-30.2v-5.9c-4.7,4.3-10.6,7.4-18.6,7.4c-12.7,0-21.6-9.2-21.6-20.4c0-13.6,10-20.5,27.4-20.5
	c3.1,0,9.7,0.6,12.5,1.2v-0.6c0-3.8-3.5-5.9-11.2-5.9c-6.8,0-14.3,1.3-19.9,3.5l-4.2-19c8-3.1,19-5,30.6-5
	C161.4,75.8,173,85.3,173,103.4z M143.2,115.2c-1.2-0.2-2.8-0.4-4.4-0.4c-4.7,0-7.4,2.3-7.4,5.9c0,2.9,1.9,4.9,5.3,4.9
	c4.9,0,6.6-3.8,6.6-8.3V115.2z"/>
<path class="st1" d="M252.5,141h-30.6v-36.4c0-3.2-2.5-5.9-5.6-5.9c-3.1,0-5.6,2.6-5.6,5.9V141H180V77.4h29.6v6.2
	c4.8-4.8,11.6-7.8,19.9-7.8c12.8,0,22.9,9.4,22.9,22V141z"/>
<path class="st1" d="M337.2,89.8c0,23.9-24.7,31.9-45.8,30.2V141h-30.7c0-80.6,0-80.8,0-80.8c5.4-0.8,15.4-1.9,29.2-1.9
	C311,58.3,337.2,65.1,337.2,89.8z M291.1,98.4c4.9,0.4,15.5-0.2,15.5-8.8c0-8-11-9-15.5-8.4V98.4z"/>
<path class="st1" d="M407.4,103.4V141h-30.2v-5.9c-4.7,4.3-10.6,7.4-18.6,7.4c-12.7,0-21.6-9.2-21.6-20.4c0-13.6,10-20.5,27.4-20.5
	c3.1,0,9.7,0.6,12.5,1.2v-0.6c0-3.8-3.5-5.9-11.2-5.9c-6.8,0-14.3,1.3-19.9,3.5l-4.2-19c8-3.1,19-5,30.6-5
	C395.8,75.8,407.4,85.3,407.4,103.4z M377.6,115.2c-1.2-0.2-2.8-0.4-4.4-0.4c-4.7,0-7.4,2.3-7.4,5.9c0,2.9,1.9,4.9,5.3,4.9
	c4.9,0,6.6-3.8,6.6-8.3V115.2z"/>
<path class="st1" d="M489.9,109c0,18.4-10.8,33.5-26.8,33.5c-7.9,0-14.6-3.8-19.3-9.7v8.2h-29.4V52.3H445v31.6c4.7-5,10.8-8,18.1-8
	C479.1,75.8,489.9,90.7,489.9,109z M460.2,109c0-5.9-3.6-10.7-8.9-10.7s-8.9,4.8-8.9,10.7c0,5.9,3.6,10.7,8.9,10.7
	S460.2,114.9,460.2,109z"/>
<path class="st1" d="M610.5,109.2c0,21.1-17.6,33.4-38.3,33.4c-20.8,0-38.5-12.1-38.5-33.4c0-21.2,17.8-33.4,38.5-33.4
	C592.9,75.8,610.5,88,610.5,109.2z M581.1,109.2c0-6-3.6-11.2-9-11.2c-5.4,0-9,5.2-9,11.2s3.6,11.2,9,11.2
	C577.5,120.3,581.1,115.2,581.1,109.2z"/>
<path class="st1" d="M526.3,116.2L526.3,116.2l0-63.9h-30.6v66.9l0,0c0.2,14.9,6.4,22.2,21.5,22.2c9.4,0,15.6-1.8,15.6-1.8v-13.1
	C526.8,126.5,526.3,122.7,526.3,116.2z"/>
<path class="st2" d="M598.2,38.2c8.5-10.5,6.5-20.9,6.5-20.9L494,41.2c-3.1,0.6-5.7,3.3-5.7,6.5v38.9c0-3.2,2.6-5.9,5.7-6.5
	c0,0,112.3-24.3,112.3-24.3C606.2,42,598.2,38.2,598.2,38.2z"/>
<g>
	<path class="st1" d="M500.3,47.6c3-0.7,4.2,1,4.2,4.1V64c0,3.2-1.2,5.3-4.2,6l-3.9,0.8V48.4L500.3,47.6z M498.9,67.1l1.3-0.3
		c1.2-0.2,1.8-0.9,1.8-2.6V52.7c0-1.4-0.7-2.1-1.8-1.8l-1.3,0.3V67.1z"/>
	<path class="st1" d="M514.7,44.5c0,2.2-0.5,3.3-0.5,3.3l-4.4,0.9v8l3.6-0.8v3.2l-3.6,0.8v4.8l4.8-1c0,0,0.5,0.9,0.5,3.1l-7.8,1.7
		V46.1L514.7,44.5z"/>
	<path class="st1" d="M521.7,50c0,0,0.4-0.8,0.4-2c0-1.2-0.5-2.2-1.7-1.9c-1.1,0.2-1.7,1.2-1.7,2.9c0,5.1,5.9,4.5,5.9,9.7v1.2
		c0,3.5-1.4,5.6-4.1,6.2c-2.5,0.5-4-0.8-4-4.3v-2.2c0,0,0.4-0.4,1.2-0.6c0.8-0.2,1.2,0.1,1.2,0.1v1.8c0,2,0.6,2.4,1.6,2.2
		c1-0.2,1.5-0.9,1.5-2.7v-0.7c0-4.4-5.9-3.1-5.9-10.4c0-3.1,1.3-5.6,4.3-6.2c2.8-0.6,4.1,1.2,4.1,3.6c0,2-0.6,2.9-0.6,2.9L521.7,50z
		"/>
	<path class="st1" d="M530.8,41c3-0.7,4.2,1,4.2,4.1v12.3c0,3.2-1.2,5.3-4.2,6l-3.9,0.8V41.9L530.8,41z M529.4,60.5l1.3-0.3
		c1.2-0.2,1.8-0.9,1.8-2.6V46.1c0-1.4-0.7-2.1-1.8-1.8l-1.3,0.3V60.5z"/>
	<path class="st1" d="M545.2,38c0,2.2-0.5,3.3-0.5,3.3l-4.4,0.9v8l3.6-0.8v3.2l-3.6,0.8v4.8l4.8-1c0,0,0.5,0.9,0.5,3.1l-7.8,1.7
		V39.5L545.2,38z"/>
	<path class="st1" d="M556.6,41.6c0,0-1,2.3-3.4,3.6c0,0-0.6-0.7-0.6-2.4c1.5-0.9,4-3.6,4.5-7.4l2.2-0.5v22.4l-2.6,0.6V41.6z"/>
	<path class="st1" d="M563.6,49.4c0.9-0.2,1.3,0,1.3,0v2.1c0,1.7,0.9,2.1,1.7,2s1.7-1,1.7-2.7v-5.6c0,0-0.6,1.1-2.3,1.4
		c-2.4,0.5-3.7-1.1-3.7-3.6v-4.2c0-3.2,1.4-5.2,4.3-5.8c2.8-0.6,4.2,0.8,4.2,4v13.1c0,3.2-1.5,5.4-4.2,6c-2.8,0.6-4.2-0.9-4.2-3.9
		v-2.2C562.4,49.9,562.7,49.5,563.6,49.4z M568.3,41.4v-3.8c0-1.6-0.7-2.2-1.7-2s-1.7,1.1-1.7,2.7v3.8c0,1.4,0.7,2.1,1.7,1.8
		S568.3,42.7,568.3,41.4z"/>
	<path class="st1" d="M573,34.9c0,0-0.5-0.8-0.5-2.8l8.8-1.9v1.4c0,0-4.4,8.8-4.4,21.9l-2.5,0.5c0-11.2,3.5-20.3,3.5-20.3L573,34.9z
		"/>
	<path class="st1" d="M584.1,44.9c0.9-0.2,1.3,0,1.3,0v2.1c0,1.7,0.9,2.1,1.7,2s1.7-1,1.7-2.7v-5.6c0,0-0.6,1.1-2.3,1.4
		c-2.4,0.5-3.7-1.1-3.7-3.6v-4.2c0-3.2,1.4-5.2,4.3-5.8c2.8-0.6,4.2,0.8,4.2,4v13.1c0,3.2-1.5,5.4-4.2,6c-2.8,0.6-4.2-0.9-4.2-3.9
		v-2.2C582.8,45.5,583.2,45.1,584.1,44.9z M588.8,37v-3.8c0-1.6-0.7-2.2-1.7-2c-1.1,0.2-1.7,1.1-1.7,2.7v3.8c0,1.4,0.7,2.1,1.7,1.8
		S588.8,38.3,588.8,37z"/>
</g>
<g>
	<g>
		<path class="st2" d="M107.7,180.2v-2.3H123v2.3H107.7z"/>
		<path class="st1" d="M162.6,188.1l-2.3-6.5h-8.1l-2.4,6.5h-3l8.1-21.2h2.9l7.7,21.2H162.6z M156.4,170.4l-3.2,8.8h6.3L156.4,170.4
			z"/>
		<path class="st1" d="M190.2,188.1v-21.2h2.8v18.7h10.3v2.5H190.2z"/>
		<path class="st1" d="M228,188.1v-21.2h2.9v21.2H228z"/>
		<path class="st1" d="M275.9,188.1c0-0.6,0.4-17.8,0.4-17.8l-6.7,17.8h-2.2l-6.6-17.5c0,0,0.3,16.9,0.3,17.5h-2.8v-21.2h3.7
			l6.5,17.4l6.5-17.4h3.7v21.2H275.9z"/>
		<path class="st1" d="M306.5,188.1v-21.2h14.6v2.5h-11.9v6.5h10.3v2.5h-10.3v7.2h12.2v2.5H306.5z"/>
		<path class="st1" d="M362.1,188.1l-11.6-17.2c0,0,0.3,16.8,0.3,17.2H348v-21.2h2.7l11.5,17c0,0-0.1-16.3-0.1-17h2.5v21.2H362.1z"
			/>
		<path class="st1" d="M398.7,169.4v18.7h-2.8v-18.7h-6.4v-2.5H405v2.5H398.7z"/>
		<path class="st1" d="M437.9,188.6c-5.5,0-10.6-3.6-10.6-11.2c0-7.7,5.2-11.1,10.7-11.1c6.4,0,10.6,4.5,10.6,10.9
			C448.6,182.5,445.8,188.6,437.9,188.6z M438,186.4c4.2,0,7.5-2.8,7.5-9.1c0-4.2-1.9-8.7-7.6-8.7c-5.6,0-7.6,4.4-7.6,8.8
			C430.3,182.9,433.2,186.4,438,186.4z"/>
		<path class="st1" d="M477.1,180.9c0,0.8,0.2,5.5,6.1,5.5c1.8,0,5.3-0.7,5.3-4.2c0-2.4-1.7-3.1-4-3.5l-1.9-0.4
			c-4.8-1-7.4-2.5-7.4-6c0-1.7,0.8-3.1,2-4.1c2-1.7,4.5-1.7,5.5-1.7c2.1,0,4.1,0.3,5.8,1.6c1.9,1.4,2.3,2.9,2.7,4.9l-2.9,0.2
			c0-1.2-0.7-4.5-5.5-4.5c-2,0-4.8,0.7-4.8,3.3c0,2,1.8,2.8,4.2,3.3l3.9,0.9c1,0.2,5.4,1.2,5.4,5.8c0,0.8-0.1,2.7-1.8,4.3
			c-1.2,1.1-3.1,2.3-6.7,2.3c-0.7,0-3.6,0-5.8-1.5c-2.8-1.8-3.1-5-3.2-5.8L477.1,180.9z"/>
		<path class="st2" d="M516.5,180.2v-2.3h15.3v2.3H516.5z"/>
	</g>
</g>
</svg>
